<svg width="32" height="33" viewBox="0 0 32 33" fill="none" xmlns="http://www.w3.org/2000/svg">
<g clip-path="url(#clip0_17_9541)">
<g clip-path="url(#clip1_17_9541)">
<rect width="40" height="40" transform="translate(-4 -3.5)" fill="white"/>
<path fill-rule="evenodd" clip-rule="evenodd" d="M23 8.5H22V6.5H20V8.5H12V6.5H10V8.5H9C7.89 8.5 7 9.4 7 10.5V24.5C7 25.6 7.89 26.5 9 26.5H23C24.1 26.5 25 25.6 25 24.5V10.5C25 9.4 24.1 8.5 23 8.5ZM23 24.5H9V13.5H23V24.5ZM10.5 17.5C10.5 16.12 11.62 15 13 15C14.38 15 15.5 16.12 15.5 17.5C15.5 18.88 14.38 20 13 20C11.62 20 10.5 18.88 10.5 17.5Z" fill="#13316D"/>
</g>
</g>
<defs>
<clipPath id="clip0_17_9541">
<rect width="32" height="33" fill="white"/>
</clipPath>
<clipPath id="clip1_17_9541">
<rect x="-4" y="-3.5" width="40" height="40" rx="20" fill="white"/>
</clipPath>
</defs>
</svg>
