<svg width="30" height="30" viewBox="0 0 30 30" fill="none" xmlns="http://www.w3.org/2000/svg">
<path fill-rule="evenodd" clip-rule="evenodd" d="M25.5653 6.78273H21.4979L19.4985 3.78373C19.2808 3.45715 18.9143 3.26099 18.5218 3.26099H11.4783C11.0858 3.26099 10.7193 3.45715 10.5015 3.78373L8.50222 6.78273H4.43482C2.48982 6.78273 0.913086 8.35946 0.913086 10.3045V23.2175C0.913086 25.1625 2.48982 26.7392 4.43482 26.7392H25.5653C27.5103 26.7392 29.087 25.1625 29.087 23.2175V10.3045C29.087 8.35946 27.5103 6.78273 25.5653 6.78273ZM10.1072 8.60781L12.1066 5.60881H17.8935L19.8929 8.60781C20.1106 8.93439 20.4771 9.13055 20.8696 9.13055H25.5653C26.2136 9.13055 26.7392 9.65613 26.7392 10.3045V23.2175C26.7392 23.8658 26.2136 24.3914 25.5653 24.3914H4.43482C3.78649 24.3914 3.26091 23.8658 3.26091 23.2175V10.3045C3.26091 9.65613 3.78649 9.13055 4.43482 9.13055H9.13048C9.52298 9.13055 9.88951 8.93439 10.1072 8.60781ZM15 22.0436C11.7584 22.0436 9.13048 19.4157 9.13048 16.174C9.13048 12.9324 11.7584 10.3045 15 10.3045C18.2417 10.3045 20.8696 12.9324 20.8696 16.174C20.8696 19.4157 18.2417 22.0436 15 22.0436ZM18.5218 16.174C18.5218 18.119 16.945 19.6958 15 19.6958C13.055 19.6958 11.4783 18.119 11.4783 16.174C11.4783 14.229 13.055 12.6523 15 12.6523C16.945 12.6523 18.5218 14.229 18.5218 16.174Z" fill="black"/>
<mask id="mask0_49_3329" style="mask-type:luminance" maskUnits="userSpaceOnUse" x="0" y="3" width="30" height="24">
<path fill-rule="evenodd" clip-rule="evenodd" d="M25.5653 6.78273H21.4979L19.4985 3.78373C19.2808 3.45715 18.9143 3.26099 18.5218 3.26099H11.4783C11.0858 3.26099 10.7193 3.45715 10.5015 3.78373L8.50222 6.78273H4.43482C2.48982 6.78273 0.913086 8.35946 0.913086 10.3045V23.2175C0.913086 25.1625 2.48982 26.7392 4.43482 26.7392H25.5653C27.5103 26.7392 29.087 25.1625 29.087 23.2175V10.3045C29.087 8.35946 27.5103 6.78273 25.5653 6.78273ZM10.1072 8.60781L12.1066 5.60881H17.8935L19.8929 8.60781C20.1106 8.93439 20.4771 9.13055 20.8696 9.13055H25.5653C26.2136 9.13055 26.7392 9.65613 26.7392 10.3045V23.2175C26.7392 23.8658 26.2136 24.3914 25.5653 24.3914H4.43482C3.78649 24.3914 3.26091 23.8658 3.26091 23.2175V10.3045C3.26091 9.65613 3.78649 9.13055 4.43482 9.13055H9.13048C9.52298 9.13055 9.88951 8.93439 10.1072 8.60781ZM15 22.0436C11.7584 22.0436 9.13048 19.4157 9.13048 16.174C9.13048 12.9324 11.7584 10.3045 15 10.3045C18.2417 10.3045 20.8696 12.9324 20.8696 16.174C20.8696 19.4157 18.2417 22.0436 15 22.0436ZM18.5218 16.174C18.5218 18.119 16.945 19.6958 15 19.6958C13.055 19.6958 11.4783 18.119 11.4783 16.174C11.4783 14.229 13.055 12.6523 15 12.6523C16.945 12.6523 18.5218 14.229 18.5218 16.174Z" fill="white"/>
</mask>
<g mask="url(#mask0_49_3329)">
<rect x="0.913086" y="0.913086" width="28.1739" height="28.1739" fill="black"/>
</g>
</svg>
