<svg width="176" height="148" viewBox="0 0 176 148" fill="none" xmlns="http://www.w3.org/2000/svg">
<path fill-rule="evenodd" clip-rule="evenodd" d="M105.245 41.7238C99.7048 41.7238 94.3918 43.923 90.4753 47.8375L89.3421 48.9696L88.2083 47.837C80.0516 39.6883 66.827 39.6883 58.6703 47.837C50.5136 55.9857 50.5136 69.1973 58.6703 77.346L87.0704 105.718C88.325 106.971 90.3591 106.971 91.6138 105.718L120.014 77.346C123.932 73.4339 126.133 68.1261 126.133 62.5915C126.133 57.0569 123.932 51.7491 120.014 47.8375C116.098 43.923 110.785 41.7238 105.245 41.7238ZM112.065 76.2091L89.3421 98.9097L63.2137 72.807C57.5662 67.1651 57.5662 58.0178 63.2137 52.3759C68.8611 46.734 78.0175 46.734 83.6649 52.3759L87.0704 55.778C88.325 57.0314 90.3591 57.0314 91.6138 55.778L95.0192 52.3759C97.7312 49.6654 101.409 48.1428 105.245 48.1428C109.08 48.1428 112.758 49.6654 115.471 52.3765C118.184 55.0852 119.708 58.7598 119.708 62.5915C119.708 66.4231 118.184 70.0977 115.471 72.8065L112.065 76.2091Z" fill="black"/>
<path d="M90.4753 47.8375L90.5813 47.9436L90.5813 47.9436L90.4753 47.8375ZM89.3421 48.9696L89.236 49.0757L89.3421 49.1816L89.4481 49.0757L89.3421 48.9696ZM88.2083 47.837L88.3143 47.7309L88.3143 47.7309L88.2083 47.837ZM58.6703 47.837L58.7763 47.9431L58.6703 47.837ZM58.6703 77.346L58.7763 77.2399L58.7763 77.2399L58.6703 77.346ZM87.0704 105.718L86.9643 105.824L86.9643 105.824L87.0704 105.718ZM91.6138 105.718L91.7198 105.824L91.7198 105.824L91.6138 105.718ZM120.014 77.346L119.908 77.2398L119.908 77.2399L120.014 77.346ZM120.014 47.8375L119.908 47.9436L119.908 47.9437L120.014 47.8375ZM89.3421 98.9097L89.236 99.0158L89.3421 99.1217L89.4481 99.0158L89.3421 98.9097ZM112.065 76.2091L111.959 76.103L111.959 76.103L112.065 76.2091ZM63.2137 72.807L63.1077 72.9131L63.1077 72.9131L63.2137 72.807ZM83.6649 52.3759L83.5589 52.482L83.5589 52.482L83.6649 52.3759ZM87.0704 55.778L86.9643 55.8841L86.9643 55.8841L87.0704 55.778ZM91.6138 55.778L91.5078 55.6719L91.5078 55.6719L91.6138 55.778ZM95.0192 52.3759L95.1252 52.482L95.1252 52.482L95.0192 52.3759ZM115.471 52.3765L115.365 52.4826L115.365 52.4826L115.471 52.3765ZM115.471 72.8065L115.365 72.7004L115.365 72.7004L115.471 72.8065ZM90.5813 47.9436C94.4696 44.0573 99.7445 41.8738 105.245 41.8738V41.5738C99.665 41.5738 94.3139 43.7888 90.3692 47.7314L90.5813 47.9436ZM89.4481 49.0757L90.5813 47.9436L90.3692 47.7314L89.236 48.8635L89.4481 49.0757ZM88.1023 47.9431L89.236 49.0757L89.4481 48.8635L88.3143 47.7309L88.1023 47.9431ZM58.7763 47.9431C66.8744 39.8529 80.0042 39.8529 88.1023 47.9431L88.3143 47.7309C80.0991 39.5237 66.7795 39.5237 58.5643 47.7309L58.7763 47.9431ZM58.7763 77.2399C50.6782 69.1498 50.6782 56.0332 58.7763 47.9431L58.5643 47.7309C50.3489 55.9381 50.3489 69.2448 58.5643 77.4521L58.7763 77.2399ZM87.1764 105.612L58.7763 77.2399L58.5643 77.4521L86.9643 105.824L87.1764 105.612ZM91.5078 105.612C90.3117 106.807 88.3724 106.807 87.1764 105.612L86.9643 105.824C88.2775 107.136 90.4066 107.136 91.7198 105.824L91.5078 105.612ZM119.908 77.2399L91.5078 105.612L91.7198 105.824L120.12 77.4521L119.908 77.2399ZM125.983 62.5915C125.983 68.0862 123.798 73.3558 119.908 77.2398L120.12 77.4521C124.066 73.5119 126.283 68.1659 126.283 62.5915H125.983ZM119.908 47.9437C123.798 51.8271 125.983 57.0967 125.983 62.5915H126.283C126.283 57.017 124.066 51.6711 120.12 47.7314L119.908 47.9437ZM105.245 41.8738C110.745 41.8738 116.02 44.0573 119.908 47.9436L120.12 47.7314C116.176 43.7888 110.825 41.5738 105.245 41.5738V41.8738ZM89.4481 99.0158L112.171 76.3152L111.959 76.103L89.236 98.8036L89.4481 99.0158ZM63.1077 72.9131L89.236 99.0158L89.4481 98.8036L63.3197 72.7009L63.1077 72.9131ZM63.1077 52.2698C57.4016 57.9703 57.4016 67.2127 63.1077 72.9131L63.3197 72.7009C57.7309 67.1176 57.7309 58.0653 63.3197 52.482L63.1077 52.2698ZM83.7709 52.2698C78.0649 46.5694 68.8137 46.5694 63.1077 52.2698L63.3197 52.482C68.9086 46.8987 77.97 46.8987 83.5589 52.482L83.7709 52.2698ZM87.1764 55.6719L83.7709 52.2698L83.5589 52.482L86.9643 55.8841L87.1764 55.6719ZM91.5078 55.6719C90.3117 56.8668 88.3724 56.8668 87.1764 55.6719L86.9643 55.8841C88.2775 57.196 90.4066 57.196 91.7198 55.8841L91.5078 55.6719ZM94.9132 52.2698L91.5078 55.6719L91.7198 55.8841L95.1252 52.482L94.9132 52.2698ZM105.245 47.9928C101.37 47.9928 97.6533 49.5312 94.9132 52.2698L95.1252 52.482C97.8091 49.7996 101.449 48.2928 105.245 48.2928V47.9928ZM115.577 52.2704C112.836 49.5312 109.12 47.9928 105.245 47.9928V48.2928C109.04 48.2928 112.681 49.7996 115.365 52.4826L115.577 52.2704ZM119.858 62.5915C119.858 58.72 118.318 55.0072 115.577 52.2703L115.365 52.4826C118.05 55.1632 119.558 58.7997 119.558 62.5915H119.858ZM115.577 72.9126C118.318 70.1758 119.858 66.463 119.858 62.5915H119.558C119.558 66.3833 118.05 70.0197 115.365 72.7004L115.577 72.9126ZM112.171 76.3152L115.577 72.9126L115.365 72.7004L111.959 76.103L112.171 76.3152Z" fill="black"/>
<mask id="mask0_5_10422" style="mask-type:luminance" maskUnits="userSpaceOnUse" x="52" y="41" width="75" height="67">
<path d="M90.4753 47.8375C94.3918 43.923 99.7048 41.7238 105.245 41.7238C110.785 41.7238 116.098 43.923 120.014 47.8375C123.932 51.7491 126.133 57.0569 126.133 62.5915C126.133 68.1261 123.932 73.4339 120.014 77.346L91.6138 105.718C90.3591 106.972 88.325 106.972 87.0704 105.718L58.6703 77.346C50.5136 69.1973 50.5136 55.9857 58.6703 47.837C66.827 39.6883 80.0516 39.6883 88.2083 47.837L89.3421 48.9696L90.4753 47.8375Z" fill="white"/>
<path d="M90.4753 47.8375L90.8286 48.1912L90.8287 48.1912L90.4753 47.8375ZM120.014 47.8375L119.661 48.1912L119.661 48.1913L120.014 47.8375ZM120.014 77.346L119.661 76.9922L119.66 76.9922L120.014 77.346ZM91.6138 105.718L91.2604 105.364L91.2604 105.364L91.6138 105.718ZM87.0704 105.718L87.4237 105.364L87.0704 105.718ZM58.6703 77.346L58.3169 77.6997L58.6703 77.346ZM89.3421 48.9696L88.9887 49.3233L89.3421 49.6764L89.6954 49.3233L89.3421 48.9696ZM90.8287 48.1912C94.6514 44.3704 99.8373 42.2238 105.245 42.2238V41.2238C99.5723 41.2238 94.1321 43.4756 90.1218 47.4839L90.8287 48.1912ZM105.245 42.2238C110.652 42.2238 115.838 44.3704 119.661 48.1912L120.368 47.4839C116.358 43.4756 110.917 41.2238 105.245 41.2238V42.2238ZM119.661 48.1913C123.484 52.0091 125.633 57.1897 125.633 62.5915H126.633C126.633 56.9241 124.379 51.489 120.368 47.4837L119.661 48.1913ZM125.633 62.5915C125.633 67.9933 123.484 73.1738 119.661 76.9922L120.367 77.6998C124.379 73.6939 126.633 68.2589 126.633 62.5915H125.633ZM119.66 76.9922L91.2604 105.364L91.9671 106.072L120.367 77.6997L119.66 76.9922ZM91.2604 105.364C90.201 106.423 88.4831 106.423 87.4237 105.364L86.717 106.072C88.1668 107.52 90.5173 107.52 91.9671 106.072L91.2604 105.364ZM87.4237 105.364L59.0236 76.9922L58.3169 77.6997L86.717 106.072L87.4237 105.364ZM59.0236 76.9922C51.0624 69.0389 51.0624 56.1441 59.0236 48.1907L58.3169 47.4833C49.9647 55.8272 49.9647 69.3557 58.3169 77.6997L59.0236 76.9922ZM59.0236 48.1907C66.9851 40.2371 79.8935 40.2371 87.8549 48.1907L88.5617 47.4833C80.2098 39.1395 66.6688 39.1395 58.3169 47.4833L59.0236 48.1907ZM87.8549 48.1907L88.9887 49.3233L89.6954 48.6159L88.5617 47.4833L87.8549 48.1907ZM89.6954 49.3233L90.8286 48.1912L90.1219 47.4838L88.9887 48.6159L89.6954 49.3233Z" fill="white"/>
</mask>
<g mask="url(#mask0_5_10422)">
</g>
<path d="M4.64 130.888C6.768 130.888 8.272 132.856 8.272 135.928C8.272 139.016 6.768 140.984 4.64 140.984C2.512 140.984 1.008 139.016 1.008 135.928C1.008 132.856 2.512 130.888 4.64 130.888ZM4.64 132.088C3.232 132.088 2.272 133.592 2.272 135.928C2.272 138.28 3.232 139.816 4.64 139.816C6.032 139.816 7.008 138.28 7.008 135.928C7.008 133.592 6.032 132.088 4.64 132.088ZM10.576 129.784H11.92V144.248H10.576V129.784ZM11.6 135.56H14.288V136.68H11.6V135.56ZM19.3588 131.272H20.4628V132.424C20.4628 135.08 18.8307 137.304 16.3988 138.168L15.7108 137.128C17.8868 136.36 19.3588 134.472 19.3588 132.424V131.272ZM19.6148 131.272H20.7188V132.424C20.7188 134.376 22.2228 136.136 24.3668 136.856L23.6788 137.896C21.2788 137.08 19.6148 134.952 19.6148 132.424V131.272ZM26.0308 129.784H27.3748V138.536H26.0308V129.784ZM17.7108 139.304H27.3748V144.248H26.0308V140.392H17.7108V139.304ZM16.0628 130.792H23.9828V131.864H16.0628V130.792ZM40.0623 134.072H41.3743V136.28H40.0623V134.072ZM39.8703 130.664H41.0383V131.112C41.0383 133.288 38.3503 134.68 35.3103 134.968L34.8783 133.96C37.4863 133.752 39.8703 132.632 39.8703 131.112V130.664ZM40.4463 130.664H41.5983V131.112C41.5983 132.616 43.9823 133.752 46.5903 133.96L46.1583 134.968C43.1343 134.68 40.4463 133.288 40.4463 131.112V130.664ZM35.3903 130.232H46.0943V131.272H35.3903V130.232ZM35.4062 138.76H46.0623V139.816H35.4062V138.76ZM34.1903 135.784H47.3103V136.856H34.1903V135.784ZM40.7343 140.52C43.5183 140.52 45.0703 141.176 45.0703 142.424C45.0703 143.688 43.5183 144.328 40.7343 144.328C37.9503 144.328 36.3823 143.688 36.3823 142.424C36.3823 141.176 37.9503 140.52 40.7343 140.52ZM40.7343 141.432C38.8143 141.432 37.7423 141.768 37.7423 142.424C37.7423 143.08 38.8143 143.416 40.7343 143.416C42.6383 143.416 43.7263 143.08 43.7263 142.424C43.7263 141.768 42.6383 141.432 40.7343 141.432ZM40.0783 137.432H41.3903V139.432H40.0783V137.432ZM52.765 130.888C54.893 130.888 56.397 132.856 56.397 135.928C56.397 139.016 54.893 140.984 52.765 140.984C50.637 140.984 49.133 139.016 49.133 135.928C49.133 132.856 50.637 130.888 52.765 130.888ZM52.765 132.088C51.357 132.088 50.397 133.592 50.397 135.928C50.397 138.28 51.357 139.816 52.765 139.816C54.157 139.816 55.133 138.28 55.133 135.928C55.133 133.592 54.157 132.088 52.765 132.088ZM58.701 129.784H60.045V144.248H58.701V129.784ZM59.725 135.56H62.413V136.68H59.725V135.56ZM66.8438 137.224H68.1558V141.56H66.8438V137.224ZM72.1878 137.224H73.5158V141.56H72.1878V137.224ZM63.6438 141.304H76.7478V142.408H63.6438V141.304ZM70.1718 130.696C73.2278 130.696 75.4198 132.152 75.4198 134.424C75.4198 136.68 73.2278 138.136 70.1718 138.136C67.0998 138.136 64.9078 136.68 64.9078 134.424C64.9078 132.152 67.0998 130.696 70.1718 130.696ZM70.1718 131.752C67.8518 131.752 66.1878 132.808 66.1878 134.424C66.1878 136.024 67.8518 137.08 70.1718 137.08C72.4918 137.08 74.1398 136.024 74.1398 134.424C74.1398 132.808 72.4918 131.752 70.1718 131.752ZM88.2505 129.8H89.5785V140.648H88.2505V129.8ZM89.1625 134.536H91.7225V135.656H89.1625V134.536ZM78.3945 131.544H86.9385V132.616H78.3945V131.544ZM82.6665 133.416C84.7145 133.416 86.1225 134.488 86.1225 136.12C86.1225 137.736 84.7145 138.808 82.6665 138.808C80.6025 138.808 79.1945 137.736 79.1945 136.12C79.1945 134.488 80.6025 133.416 82.6665 133.416ZM82.6665 134.456C81.3545 134.456 80.4585 135.112 80.4585 136.12C80.4585 137.112 81.3545 137.768 82.6665 137.768C83.9625 137.768 84.8585 137.112 84.8585 136.12C84.8585 135.112 83.9625 134.456 82.6665 134.456ZM81.9945 129.784H83.3225V132.104H81.9945V129.784ZM80.5705 142.84H90.2345V143.928H80.5705V142.84ZM80.5705 139.784H81.8985V143.304H80.5705V139.784ZM98.714 130.392H108.026V131.464H98.714V130.392ZM97.05 135.16H110.154V136.248H97.05V135.16ZM107.162 130.392H108.458V131.32C108.458 132.36 108.458 133.704 108.074 135.496L106.778 135.352C107.162 133.592 107.162 132.344 107.162 131.32V130.392ZM98.586 137.672H108.506V141.352H99.946V143.368H98.618V140.328H107.194V138.744H98.586V137.672ZM98.618 143.016H108.874V144.088H98.618V143.016ZM122.265 129.768H123.593V144.264H122.265V129.768ZM115.961 130.888C118.105 130.888 119.641 132.856 119.641 135.928C119.641 139.016 118.105 140.984 115.961 140.984C113.833 140.984 112.297 139.016 112.297 135.928C112.297 132.856 113.833 130.888 115.961 130.888ZM115.961 132.088C114.553 132.088 113.561 133.592 113.561 135.928C113.561 138.28 114.553 139.816 115.961 139.816C117.385 139.816 118.361 138.28 118.361 135.928C118.361 133.592 117.385 132.088 115.961 132.088ZM132.104 138.264H133.352V140.072H135.88V138.264H137.112V144.056H132.104V138.264ZM133.352 141.064V143.016H135.88V141.064H133.352ZM139.912 138.184H140.936V139.384C140.936 141.352 139.944 143.336 137.944 144.184L137.272 143.176C139.016 142.44 139.912 140.856 139.912 139.384V138.184ZM140.184 138.184H141.208V139.384C141.208 140.936 142.104 142.504 143.848 143.176L143.176 144.184C141.16 143.352 140.184 141.432 140.184 139.384V138.184ZM137.72 133.176H141.608V134.28H137.72V133.176ZM134.392 130.424C136.552 130.424 138.12 131.768 138.12 133.752C138.12 135.72 136.552 137.08 134.392 137.08C132.232 137.08 130.664 135.72 130.664 133.752C130.664 131.768 132.232 130.424 134.392 130.424ZM134.392 131.528C132.968 131.528 131.944 132.44 131.944 133.752C131.944 135.048 132.968 135.976 134.392 135.976C135.816 135.976 136.84 135.048 136.84 133.752C136.84 132.44 135.816 131.528 134.392 131.528ZM141.016 129.784H142.344V137.448H141.016V129.784ZM149.031 130.888C151.127 130.888 152.631 132.856 152.631 135.928C152.631 139.016 151.127 140.984 149.031 140.984C146.919 140.984 145.431 139.016 145.431 135.928C145.431 132.856 146.919 130.888 149.031 130.888ZM149.031 132.088C147.639 132.088 146.695 133.592 146.695 135.928C146.695 138.28 147.639 139.816 149.031 139.816C150.423 139.816 151.367 138.28 151.367 135.928C151.367 133.592 150.423 132.088 149.031 132.088ZM155.767 129.768H157.079V144.264H155.767V129.768ZM152.199 135.288H156.343V136.376H152.199V135.288ZM163.094 137.224H164.406V141.56H163.094V137.224ZM168.438 137.224H169.766V141.56H168.438V137.224ZM159.894 141.304H172.998V142.408H159.894V141.304ZM166.422 130.696C169.478 130.696 171.67 132.152 171.67 134.424C171.67 136.68 169.478 138.136 166.422 138.136C163.35 138.136 161.158 136.68 161.158 134.424C161.158 132.152 163.35 130.696 166.422 130.696ZM166.422 131.752C164.102 131.752 162.438 132.808 162.438 134.424C162.438 136.024 164.102 137.08 166.422 137.08C168.742 137.08 170.39 136.024 170.39 134.424C170.39 132.808 168.742 131.752 166.422 131.752Z" fill="black"/>
</svg>
