<svg width="32" height="32" viewBox="0 0 32 32" fill="none" xmlns="http://www.w3.org/2000/svg">
<rect opacity="0.01" width="32" height="32" fill="#D8D8D8"/>
<path fill-rule="evenodd" clip-rule="evenodd" d="M19.7572 9.04346C18.5576 9.04346 17.4072 9.52014 16.5591 10.3686L16.3138 10.614L16.0683 10.3685C14.3021 8.60228 11.4385 8.60228 9.67231 10.3685C7.90611 12.1347 7.90611 14.9983 9.67231 16.7645L15.8219 22.914C16.0935 23.1857 16.534 23.1857 16.8057 22.914L22.9552 16.7645C23.8036 15.9165 24.2803 14.7661 24.2803 13.5665C24.2803 12.3669 23.8036 11.2164 22.9554 10.3686C22.1073 9.52014 20.9569 9.04346 19.7572 9.04346ZM21.234 16.518L16.3138 21.4383L10.6561 15.7807C9.43325 14.5578 9.43325 12.5751 10.6561 11.3523C11.879 10.1294 13.8616 10.1294 15.0845 11.3523L15.8219 12.0897C16.0935 12.3613 16.534 12.3613 16.8057 12.0897L17.5431 11.3523C18.1303 10.7648 18.9268 10.4348 19.7572 10.4348C20.5877 10.4348 21.3842 10.7648 21.9716 11.3524C22.5589 11.9395 22.889 12.736 22.889 13.5665C22.889 14.397 22.5589 15.1934 21.9716 15.7805L21.234 16.518Z" fill="black"/>
<path d="M16.5591 10.3686L16.6652 10.4747L16.6652 10.4746L16.5591 10.3686ZM16.3138 10.614L16.2077 10.72L16.3138 10.8261L16.4198 10.72L16.3138 10.614ZM9.67231 10.3685L9.77837 10.4745L9.67231 10.3685ZM9.67231 16.7645L9.56624 16.8705L9.67231 16.7645ZM15.8219 22.914L15.9279 22.808L15.8219 22.914ZM16.8057 22.914L16.6996 22.808L16.8057 22.914ZM22.9552 16.7645L22.8492 16.6584L22.8492 16.6584L22.9552 16.7645ZM22.9554 10.3686L22.8493 10.4746L22.8493 10.4747L22.9554 10.3686ZM16.3138 21.4383L16.2077 21.5444L16.3138 21.6504L16.4198 21.5444L16.3138 21.4383ZM21.234 16.518L21.128 16.412L21.234 16.518ZM10.6561 15.7807L10.55 15.8867L10.6561 15.7807ZM15.0845 11.3523L14.9784 11.4583L15.0845 11.3523ZM15.8219 12.0897L15.9279 11.9836L15.8219 12.0897ZM16.8057 12.0897L16.6996 11.9836L16.8057 12.0897ZM17.5431 11.3523L17.6491 11.4583L17.6492 11.4583L17.5431 11.3523ZM21.9716 11.3524L21.8655 11.4584L21.8655 11.4585L21.9716 11.3524ZM21.9716 15.7805L21.8655 15.6744L21.8655 15.6745L21.9716 15.7805ZM16.6652 10.4746C17.4852 9.65433 18.5974 9.19346 19.7572 9.19346V8.89346C18.5178 8.89346 17.3292 9.38596 16.4531 10.2626L16.6652 10.4746ZM16.4198 10.72L16.6652 10.4747L16.4531 10.2625L16.2077 10.5079L16.4198 10.72ZM15.9622 10.4745L16.2077 10.72L16.4198 10.5079L16.1743 10.2624L15.9622 10.4745ZM9.77837 10.4745C11.486 8.76692 14.2546 8.76692 15.9622 10.4745L16.1743 10.2624C14.3496 8.43763 11.391 8.43763 9.56624 10.2624L9.77837 10.4745ZM9.77837 16.6584C8.07075 14.9508 8.07075 12.1822 9.77837 10.4745L9.56624 10.2624C7.74146 12.0872 7.74146 15.0457 9.56624 16.8705L9.77837 16.6584ZM15.9279 22.808L9.77837 16.6584L9.56624 16.8705L15.7158 23.0201L15.9279 22.808ZM16.6996 22.808C16.4865 23.021 16.141 23.021 15.9279 22.808L15.7158 23.0201C16.0461 23.3503 16.5815 23.3503 16.9117 23.0201L16.6996 22.808ZM22.8492 16.6584L16.6996 22.808L16.9117 23.0201L23.0613 16.8705L22.8492 16.6584ZM24.1303 13.5665C24.1303 14.7263 23.6694 15.8386 22.8492 16.6584L23.0613 16.8705C23.9378 15.9945 24.4303 14.8059 24.4303 13.5665H24.1303ZM22.8493 10.4747C23.6694 11.2944 24.1303 12.4066 24.1303 13.5665H24.4303C24.4303 12.3271 23.9378 11.1385 23.0614 10.2625L22.8493 10.4747ZM19.7572 9.19346C20.9171 9.19346 22.0293 9.65433 22.8493 10.4746L23.0614 10.2626C22.1853 9.38596 20.9967 8.89346 19.7572 8.89346V9.19346ZM16.4198 21.5444L21.3401 16.6241L21.128 16.412L16.2077 21.3323L16.4198 21.5444ZM10.55 15.8867L16.2077 21.5444L16.4198 21.3323L10.7622 15.6746L10.55 15.8867ZM10.55 11.2462C9.2686 12.5277 9.2686 14.6053 10.55 15.8867L10.7622 15.6746C9.59789 14.5103 9.59789 12.6226 10.7622 11.4583L10.55 11.2462ZM15.1905 11.2462C13.9091 9.96477 11.8315 9.96477 10.55 11.2462L10.7622 11.4583C11.9265 10.2941 13.8141 10.2941 14.9784 11.4583L15.1905 11.2462ZM15.9279 11.9836L15.1905 11.2462L14.9784 11.4583L15.7158 12.1957L15.9279 11.9836ZM16.6996 11.9836C16.4865 12.1967 16.141 12.1967 15.9279 11.9836L15.7158 12.1957C16.0461 12.526 16.5815 12.526 16.9117 12.1957L16.6996 11.9836ZM17.437 11.2462L16.6996 11.9836L16.9117 12.1957L17.6491 11.4583L17.437 11.2462ZM19.7572 10.2848C18.887 10.2848 18.0523 10.6306 17.437 11.2462L17.6492 11.4583C18.2083 10.899 18.9666 10.5848 19.7572 10.5848V10.2848ZM22.0776 11.2464C21.4622 10.6306 20.6276 10.2848 19.7572 10.2848V10.5848C20.5479 10.5848 21.3062 10.899 21.8655 11.4584L22.0776 11.2464ZM23.039 13.5665C23.039 12.6962 22.6931 11.8615 22.0776 11.2463L21.8655 11.4585C22.4248 12.0175 22.739 12.7758 22.739 13.5665H23.039ZM22.0776 15.8866C22.6931 15.2714 23.039 14.4368 23.039 13.5665H22.739C22.739 14.3572 22.4248 15.1155 21.8655 15.6744L22.0776 15.8866ZM21.3401 16.6241L22.0776 15.8866L21.8655 15.6745L21.128 16.412L21.3401 16.6241Z" fill="black"/>
<mask id="mask0_11_5028" style="mask-type:luminance" maskUnits="userSpaceOnUse" x="8" y="8" width="17" height="16">
<path fill-rule="evenodd" clip-rule="evenodd" d="M19.7572 9.04346C18.5576 9.04346 17.4072 9.52014 16.5591 10.3686L16.3138 10.614L16.0683 10.3685C14.3021 8.60228 11.4385 8.60228 9.67231 10.3685C7.90611 12.1347 7.90611 14.9983 9.67231 16.7645L15.8219 22.914C16.0935 23.1857 16.534 23.1857 16.8057 22.914L22.9552 16.7645C23.8036 15.9165 24.2803 14.7661 24.2803 13.5665C24.2803 12.3669 23.8036 11.2164 22.9554 10.3686C22.1073 9.52014 20.9569 9.04346 19.7572 9.04346ZM21.234 16.518L16.3138 21.4383L10.6561 15.7807C9.43325 14.5578 9.43325 12.5751 10.6561 11.3523C11.879 10.1294 13.8616 10.1294 15.0845 11.3523L15.8219 12.0897C16.0935 12.3613 16.534 12.3613 16.8057 12.0897L17.5431 11.3523C18.1303 10.7648 18.9268 10.4348 19.7572 10.4348C20.5877 10.4348 21.3842 10.7648 21.9716 11.3524C22.5589 11.9395 22.889 12.736 22.889 13.5665C22.889 14.397 22.5589 15.1934 21.9716 15.7805L21.234 16.518Z" fill="white"/>
<path d="M16.5591 10.3686L16.6652 10.4747L16.6652 10.4746L16.5591 10.3686ZM16.3138 10.614L16.2077 10.72L16.3138 10.8261L16.4198 10.72L16.3138 10.614ZM9.67231 10.3685L9.77837 10.4745L9.67231 10.3685ZM9.67231 16.7645L9.56624 16.8705L9.67231 16.7645ZM15.8219 22.914L15.9279 22.808L15.8219 22.914ZM16.8057 22.914L16.6996 22.808L16.8057 22.914ZM22.9552 16.7645L22.8492 16.6584L22.8492 16.6584L22.9552 16.7645ZM22.9554 10.3686L22.8493 10.4746L22.8493 10.4747L22.9554 10.3686ZM16.3138 21.4383L16.2077 21.5444L16.3138 21.6504L16.4198 21.5444L16.3138 21.4383ZM21.234 16.518L21.128 16.412L21.234 16.518ZM10.6561 15.7807L10.55 15.8867L10.6561 15.7807ZM15.0845 11.3523L14.9784 11.4583L15.0845 11.3523ZM15.8219 12.0897L15.9279 11.9836L15.8219 12.0897ZM16.8057 12.0897L16.6996 11.9836L16.8057 12.0897ZM17.5431 11.3523L17.6491 11.4583L17.6492 11.4583L17.5431 11.3523ZM21.9716 11.3524L21.8655 11.4584L21.8655 11.4585L21.9716 11.3524ZM21.9716 15.7805L21.8655 15.6744L21.8655 15.6745L21.9716 15.7805ZM16.6652 10.4746C17.4852 9.65433 18.5974 9.19346 19.7572 9.19346V8.89346C18.5178 8.89346 17.3292 9.38596 16.4531 10.2626L16.6652 10.4746ZM16.4198 10.72L16.6652 10.4747L16.4531 10.2625L16.2077 10.5079L16.4198 10.72ZM15.9622 10.4745L16.2077 10.72L16.4198 10.5079L16.1743 10.2624L15.9622 10.4745ZM9.77837 10.4745C11.486 8.76692 14.2546 8.76692 15.9622 10.4745L16.1743 10.2624C14.3496 8.43763 11.391 8.43763 9.56624 10.2624L9.77837 10.4745ZM9.77837 16.6584C8.07075 14.9508 8.07075 12.1822 9.77837 10.4745L9.56624 10.2624C7.74146 12.0872 7.74146 15.0457 9.56624 16.8705L9.77837 16.6584ZM15.9279 22.808L9.77837 16.6584L9.56624 16.8705L15.7158 23.0201L15.9279 22.808ZM16.6996 22.808C16.4865 23.021 16.141 23.021 15.9279 22.808L15.7158 23.0201C16.0461 23.3503 16.5815 23.3503 16.9117 23.0201L16.6996 22.808ZM22.8492 16.6584L16.6996 22.808L16.9117 23.0201L23.0613 16.8705L22.8492 16.6584ZM24.1303 13.5665C24.1303 14.7263 23.6694 15.8386 22.8492 16.6584L23.0613 16.8705C23.9378 15.9945 24.4303 14.8059 24.4303 13.5665H24.1303ZM22.8493 10.4747C23.6694 11.2944 24.1303 12.4066 24.1303 13.5665H24.4303C24.4303 12.3271 23.9378 11.1385 23.0614 10.2625L22.8493 10.4747ZM19.7572 9.19346C20.9171 9.19346 22.0293 9.65433 22.8493 10.4746L23.0614 10.2626C22.1853 9.38596 20.9967 8.89346 19.7572 8.89346V9.19346ZM16.4198 21.5444L21.3401 16.6241L21.128 16.412L16.2077 21.3323L16.4198 21.5444ZM10.55 15.8867L16.2077 21.5444L16.4198 21.3323L10.7622 15.6746L10.55 15.8867ZM10.55 11.2462C9.2686 12.5277 9.2686 14.6053 10.55 15.8867L10.7622 15.6746C9.59789 14.5103 9.59789 12.6226 10.7622 11.4583L10.55 11.2462ZM15.1905 11.2462C13.9091 9.96477 11.8315 9.96477 10.55 11.2462L10.7622 11.4583C11.9265 10.2941 13.8141 10.2941 14.9784 11.4583L15.1905 11.2462ZM15.9279 11.9836L15.1905 11.2462L14.9784 11.4583L15.7158 12.1957L15.9279 11.9836ZM16.6996 11.9836C16.4865 12.1967 16.141 12.1967 15.9279 11.9836L15.7158 12.1957C16.0461 12.526 16.5815 12.526 16.9117 12.1957L16.6996 11.9836ZM17.437 11.2462L16.6996 11.9836L16.9117 12.1957L17.6491 11.4583L17.437 11.2462ZM19.7572 10.2848C18.887 10.2848 18.0523 10.6306 17.437 11.2462L17.6492 11.4583C18.2083 10.899 18.9666 10.5848 19.7572 10.5848V10.2848ZM22.0776 11.2464C21.4622 10.6306 20.6276 10.2848 19.7572 10.2848V10.5848C20.5479 10.5848 21.3062 10.899 21.8655 11.4584L22.0776 11.2464ZM23.039 13.5665C23.039 12.6962 22.6931 11.8615 22.0776 11.2463L21.8655 11.4585C22.4248 12.0175 22.739 12.7758 22.739 13.5665H23.039ZM22.0776 15.8866C22.6931 15.2714 23.039 14.4368 23.039 13.5665H22.739C22.739 14.3572 22.4248 15.1155 21.8655 15.6744L22.0776 15.8866ZM21.3401 16.6241L22.0776 15.8866L21.8655 15.6745L21.128 16.412L21.3401 16.6241Z" fill="white"/>
</mask>
<g mask="url(#mask0_11_5028)">
</g>
</svg>
