<svg width="26" height="22" viewBox="0 0 26 22" fill="black" xmlns="http://www.w3.org/2000/svg">
<path d="M8.97898 1.6164C11.1713 -0.538793 14.713 -0.538793 16.9058 1.61684L21.1575 5.80181V2.4544C21.1575 1.90212 21.6082 1.4544 22.164 1.4544C22.7199 1.4544 23.1705 1.90212 23.1705 2.4544L23.1698 7.7804L25.2249 9.80396C25.5894 10.1628 25.6199 10.7299 25.3148 11.1236L25.2315 11.2182C24.8403 11.6105 24.203 11.6134 23.8081 11.2247L23.1665 10.5932L23.1604 16.4754C23.1516 19.5347 20.6389 22.0048 17.5502 22H8.34002C5.2477 22.0048 2.73413 19.5315 2.72828 16.47V10.5828L2.07616 11.2247C1.68128 11.6134 1.04403 11.6105 0.652814 11.2182C0.261597 10.8258 0.264559 10.1927 0.659431 9.80397L3.02639 7.47398C3.02679 7.47358 3.0272 7.47318 3.02761 7.47278L8.97898 1.6164ZM21.1557 8.61501L15.4896 3.03812C14.0816 1.65397 11.8027 1.65397 10.3951 3.03777L4.74121 8.60001L4.74121 16.4681C4.74482 18.3576 6.25111 19.9006 8.14755 19.9954L8.33845 20H9.04209V18.4572C9.04209 16.3255 10.7896 14.6 12.9421 14.6C15.0947 14.6 16.8422 16.3255 16.8422 18.4572V20H17.5518C19.5341 20.0031 21.1418 18.4226 21.1474 16.4715L21.1557 8.61501ZM14.8293 20V18.4572C14.8293 17.4329 13.9858 16.6 12.9421 16.6C11.8985 16.6 11.055 17.4329 11.055 18.4572V20H14.8293Z" fill="black"/>
</svg>
