<svg width="20" height="22" viewBox="0 0 20 22" fill="none" xmlns="http://www.w3.org/2000/svg">
<path fill-rule="evenodd" clip-rule="evenodd" d="M10.0071 0C11.4727 0 12.8777 0.558266 13.9127 1.55112C14.946 2.54236 15.526 3.88562 15.526 5.28571C15.526 8.20306 13.0571 10.5714 10.0071 10.5714C6.95717 10.5714 4.48827 8.20306 4.48827 5.28571C4.48827 2.36837 6.95717 0 10.0071 0ZM10.0071 2C8.12229 2 6.59073 3.46919 6.59073 5.28571C6.59073 7.10223 8.12229 8.57143 10.0071 8.57143C11.892 8.57143 13.4235 7.10223 13.4235 5.28571C13.4235 4.41253 13.0621 3.57561 12.4198 2.95939C11.7791 2.34479 10.9113 2 10.0071 2ZM13.6952 12.8571L13.7478 12.8584C16.319 12.9808 18.5954 14.4864 19.6013 16.6915C21.0201 19.3597 18.4434 22 15.171 22H4.84188C1.57113 22 -1.00532 19.36 0.385617 16.7442C1.41747 14.4864 3.69386 12.9808 6.31768 12.8571H13.6952ZM6.36967 14.8559C4.59822 14.9402 3.02716 15.9793 2.28744 17.5937C1.69425 18.7108 2.95237 20 4.8413 20H15.1704C17.0607 20 18.3185 18.7112 17.6986 17.5416C16.9879 15.9866 15.4283 14.95 13.667 14.8571H13.6687L13.6421 14.8559L13.667 14.8571L6.36967 14.8559Z" fill="black"/>
</svg>
