<svg width="32" height="32" viewBox="0 0 32 32" fill="none" xmlns="http://www.w3.org/2000/svg">
<rect opacity="0.01" width="32" height="32" fill="#FF0000"/>
<path fill-rule="evenodd" clip-rule="evenodd" d="M19.7572 9.04349C18.5576 9.04349 17.4072 9.52018 16.5591 10.3686L16.3138 10.614L16.0683 10.3685C14.3021 8.60231 11.4385 8.60231 9.67231 10.3685C7.90611 12.1347 7.90611 14.9983 9.67231 16.7645L15.8219 22.914C16.0935 23.1857 16.534 23.1857 16.8057 22.914L22.9552 16.7645C23.8036 15.9165 24.2803 14.7661 24.2803 13.5665C24.2803 12.3669 23.8036 11.2164 22.9554 10.3686C22.1073 9.52018 20.9569 9.04349 19.7572 9.04349ZM21.234 16.5181L16.3138 21.4383L10.6561 15.7807C9.43325 14.5578 9.43325 12.5752 10.6561 11.3523C11.879 10.1294 13.8616 10.1294 15.0845 11.3523L15.8219 12.0897C16.0935 12.3614 16.534 12.3614 16.8057 12.0897L17.5431 11.3523C18.1303 10.7648 18.9268 10.4348 19.7572 10.4348C20.5877 10.4348 21.3842 10.7648 21.9716 11.3524C22.5589 11.9395 22.889 12.736 22.889 13.5665C22.889 14.397 22.5589 15.1935 21.9716 15.7806L21.234 16.5181Z" fill="#FF0000"/>
<path d="M16.5591 10.3686L16.6652 10.4747L16.6652 10.4747L16.5591 10.3686ZM16.3138 10.614L16.2077 10.7201L16.3138 10.8261L16.4198 10.7201L16.3138 10.614ZM9.67231 10.3685L9.77837 10.4746L9.67231 10.3685ZM9.67231 16.7645L9.56624 16.8705L9.67231 16.7645ZM15.8219 22.914L15.9279 22.808L15.9279 22.808L15.8219 22.914ZM16.8057 22.914L16.6996 22.808L16.6996 22.808L16.8057 22.914ZM22.9552 16.7645L22.8492 16.6584L22.8492 16.6584L22.9552 16.7645ZM22.9554 10.3686L22.8493 10.4747L22.8493 10.4747L22.9554 10.3686ZM16.3138 21.4383L16.2077 21.5444L16.3138 21.6505L16.4198 21.5444L16.3138 21.4383ZM21.234 16.5181L21.128 16.412L21.128 16.412L21.234 16.5181ZM10.6561 15.7807L10.55 15.8867L10.55 15.8867L10.6561 15.7807ZM15.0845 11.3523L14.9784 11.4584L14.9784 11.4584L15.0845 11.3523ZM15.8219 12.0897L15.9279 11.9836L15.9279 11.9836L15.8219 12.0897ZM16.8057 12.0897L16.6996 11.9836L16.6996 11.9836L16.8057 12.0897ZM17.5431 11.3523L17.6491 11.4584L17.6492 11.4584L17.5431 11.3523ZM21.9716 11.3524L21.8655 11.4585L21.8655 11.4585L21.9716 11.3524ZM21.9716 15.7806L21.8655 15.6745L21.8655 15.6745L21.9716 15.7806ZM16.6652 10.4747C17.4852 9.65436 18.5974 9.19349 19.7572 9.19349V8.89349C18.5178 8.89349 17.3292 9.38599 16.4531 10.2626L16.6652 10.4747ZM16.4198 10.7201L16.6652 10.4747L16.4531 10.2626L16.2077 10.5079L16.4198 10.7201ZM15.9622 10.4746L16.2077 10.7201L16.4198 10.5079L16.1743 10.2624L15.9622 10.4746ZM9.77837 10.4746C11.486 8.76695 14.2546 8.76695 15.9622 10.4746L16.1743 10.2624C14.3496 8.43767 11.391 8.43767 9.56624 10.2624L9.77837 10.4746ZM9.77837 16.6584C8.07075 14.9508 8.07075 12.1822 9.77837 10.4746L9.56624 10.2624C7.74146 12.0872 7.74146 15.0458 9.56624 16.8705L9.77837 16.6584ZM15.9279 22.808L9.77837 16.6584L9.56624 16.8705L15.7158 23.0201L15.9279 22.808ZM16.6996 22.808C16.4865 23.0211 16.141 23.0211 15.9279 22.808L15.7158 23.0201C16.0461 23.3504 16.5815 23.3504 16.9117 23.0201L16.6996 22.808ZM22.8492 16.6584L16.6996 22.808L16.9117 23.0201L23.0613 16.8705L22.8492 16.6584ZM24.1303 13.5665C24.1303 14.7263 23.6694 15.8386 22.8492 16.6584L23.0613 16.8706C23.9378 15.9945 24.4303 14.8059 24.4303 13.5665H24.1303ZM22.8493 10.4747C23.6694 11.2944 24.1303 12.4067 24.1303 13.5665H24.4303C24.4303 12.3271 23.9378 11.1385 23.0614 10.2625L22.8493 10.4747ZM19.7572 9.19349C20.9171 9.19349 22.0293 9.65436 22.8493 10.4747L23.0614 10.2626C22.1853 9.38599 20.9967 8.89349 19.7572 8.89349V9.19349ZM16.4198 21.5444L21.3401 16.6241L21.128 16.412L16.2077 21.3323L16.4198 21.5444ZM10.55 15.8867L16.2077 21.5444L16.4198 21.3323L10.7622 15.6746L10.55 15.8867ZM10.55 11.2462C9.2686 12.5277 9.2686 14.6053 10.55 15.8867L10.7622 15.6746C9.59789 14.5103 9.59789 12.6227 10.7622 11.4584L10.55 11.2462ZM15.1905 11.2462C13.9091 9.9648 11.8315 9.9648 10.55 11.2462L10.7622 11.4584C11.9265 10.2941 13.8141 10.2941 14.9784 11.4584L15.1905 11.2462ZM15.9279 11.9836L15.1905 11.2462L14.9784 11.4584L15.7158 12.1958L15.9279 11.9836ZM16.6996 11.9836C16.4865 12.1967 16.141 12.1967 15.9279 11.9836L15.7158 12.1958C16.0461 12.526 16.5815 12.526 16.9117 12.1958L16.6996 11.9836ZM17.437 11.2462L16.6996 11.9836L16.9117 12.1958L17.6491 11.4584L17.437 11.2462ZM19.7572 10.2848C18.887 10.2848 18.0523 10.6306 17.437 11.2463L17.6492 11.4584C18.2083 10.899 18.9666 10.5848 19.7572 10.5848V10.2848ZM22.0776 11.2464C21.4622 10.6306 20.6276 10.2848 19.7572 10.2848V10.5848C20.5479 10.5848 21.3062 10.899 21.8655 11.4585L22.0776 11.2464ZM23.039 13.5665C23.039 12.6962 22.6931 11.8616 22.0776 11.2463L21.8655 11.4585C22.4248 12.0175 22.739 12.7758 22.739 13.5665H23.039ZM22.0776 15.8867C22.6931 15.2714 23.039 14.4368 23.039 13.5665H22.739C22.739 14.3572 22.4248 15.1155 21.8655 15.6745L22.0776 15.8867ZM21.3401 16.6241L22.0776 15.8866L21.8655 15.6745L21.128 16.412L21.3401 16.6241Z" fill="#FF0000"/>
<mask id="mask0_152_7248" style="mask-type:luminance" maskUnits="userSpaceOnUse" x="8" y="8" width="17" height="16">
<path fill-rule="evenodd" clip-rule="evenodd" d="M19.7572 9.04349C18.5576 9.04349 17.4072 9.52018 16.5591 10.3686L16.3138 10.614L16.0683 10.3685C14.3021 8.60231 11.4385 8.60231 9.67231 10.3685C7.90611 12.1347 7.90611 14.9983 9.67231 16.7645L15.8219 22.914C16.0935 23.1857 16.534 23.1857 16.8057 22.914L22.9552 16.7645C23.8036 15.9165 24.2803 14.7661 24.2803 13.5665C24.2803 12.3669 23.8036 11.2164 22.9554 10.3686C22.1073 9.52018 20.9569 9.04349 19.7572 9.04349ZM21.234 16.5181L16.3138 21.4383L10.6561 15.7807C9.43325 14.5578 9.43325 12.5752 10.6561 11.3523C11.879 10.1294 13.8616 10.1294 15.0845 11.3523L15.8219 12.0897C16.0935 12.3614 16.534 12.3614 16.8057 12.0897L17.5431 11.3523C18.1303 10.7648 18.9268 10.4348 19.7572 10.4348C20.5877 10.4348 21.3842 10.7648 21.9716 11.3524C22.5589 11.9395 22.889 12.736 22.889 13.5665C22.889 14.397 22.5589 15.1935 21.9716 15.7806L21.234 16.5181Z" fill="white"/>
<path d="M16.5591 10.3686L16.6652 10.4747L16.6652 10.4747L16.5591 10.3686ZM16.3138 10.614L16.2077 10.7201L16.3138 10.8261L16.4198 10.7201L16.3138 10.614ZM9.67231 10.3685L9.77837 10.4746L9.67231 10.3685ZM9.67231 16.7645L9.56624 16.8705L9.67231 16.7645ZM15.8219 22.914L15.9279 22.808L15.9279 22.808L15.8219 22.914ZM16.8057 22.914L16.6996 22.808L16.6996 22.808L16.8057 22.914ZM22.9552 16.7645L22.8492 16.6584L22.8492 16.6584L22.9552 16.7645ZM22.9554 10.3686L22.8493 10.4747L22.8493 10.4747L22.9554 10.3686ZM16.3138 21.4383L16.2077 21.5444L16.3138 21.6505L16.4198 21.5444L16.3138 21.4383ZM21.234 16.5181L21.128 16.412L21.128 16.412L21.234 16.5181ZM10.6561 15.7807L10.55 15.8867L10.55 15.8867L10.6561 15.7807ZM15.0845 11.3523L14.9784 11.4584L14.9784 11.4584L15.0845 11.3523ZM15.8219 12.0897L15.9279 11.9836L15.9279 11.9836L15.8219 12.0897ZM16.8057 12.0897L16.6996 11.9836L16.6996 11.9836L16.8057 12.0897ZM17.5431 11.3523L17.6491 11.4584L17.6492 11.4584L17.5431 11.3523ZM21.9716 11.3524L21.8655 11.4585L21.8655 11.4585L21.9716 11.3524ZM21.9716 15.7806L21.8655 15.6745L21.8655 15.6745L21.9716 15.7806ZM16.6652 10.4747C17.4852 9.65436 18.5974 9.19349 19.7572 9.19349V8.89349C18.5178 8.89349 17.3292 9.38599 16.4531 10.2626L16.6652 10.4747ZM16.4198 10.7201L16.6652 10.4747L16.4531 10.2626L16.2077 10.5079L16.4198 10.7201ZM15.9622 10.4746L16.2077 10.7201L16.4198 10.5079L16.1743 10.2624L15.9622 10.4746ZM9.77837 10.4746C11.486 8.76695 14.2546 8.76695 15.9622 10.4746L16.1743 10.2624C14.3496 8.43767 11.391 8.43767 9.56624 10.2624L9.77837 10.4746ZM9.77837 16.6584C8.07075 14.9508 8.07075 12.1822 9.77837 10.4746L9.56624 10.2624C7.74146 12.0872 7.74146 15.0458 9.56624 16.8705L9.77837 16.6584ZM15.9279 22.808L9.77837 16.6584L9.56624 16.8705L15.7158 23.0201L15.9279 22.808ZM16.6996 22.808C16.4865 23.0211 16.141 23.0211 15.9279 22.808L15.7158 23.0201C16.0461 23.3504 16.5815 23.3504 16.9117 23.0201L16.6996 22.808ZM22.8492 16.6584L16.6996 22.808L16.9117 23.0201L23.0613 16.8705L22.8492 16.6584ZM24.1303 13.5665C24.1303 14.7263 23.6694 15.8386 22.8492 16.6584L23.0613 16.8706C23.9378 15.9945 24.4303 14.8059 24.4303 13.5665H24.1303ZM22.8493 10.4747C23.6694 11.2944 24.1303 12.4067 24.1303 13.5665H24.4303C24.4303 12.3271 23.9378 11.1385 23.0614 10.2625L22.8493 10.4747ZM19.7572 9.19349C20.9171 9.19349 22.0293 9.65436 22.8493 10.4747L23.0614 10.2626C22.1853 9.38599 20.9967 8.89349 19.7572 8.89349V9.19349ZM16.4198 21.5444L21.3401 16.6241L21.128 16.412L16.2077 21.3323L16.4198 21.5444ZM10.55 15.8867L16.2077 21.5444L16.4198 21.3323L10.7622 15.6746L10.55 15.8867ZM10.55 11.2462C9.2686 12.5277 9.2686 14.6053 10.55 15.8867L10.7622 15.6746C9.59789 14.5103 9.59789 12.6227 10.7622 11.4584L10.55 11.2462ZM15.1905 11.2462C13.9091 9.9648 11.8315 9.9648 10.55 11.2462L10.7622 11.4584C11.9265 10.2941 13.8141 10.2941 14.9784 11.4584L15.1905 11.2462ZM15.9279 11.9836L15.1905 11.2462L14.9784 11.4584L15.7158 12.1958L15.9279 11.9836ZM16.6996 11.9836C16.4865 12.1967 16.141 12.1967 15.9279 11.9836L15.7158 12.1958C16.0461 12.526 16.5815 12.526 16.9117 12.1958L16.6996 11.9836ZM17.437 11.2462L16.6996 11.9836L16.9117 12.1958L17.6491 11.4584L17.437 11.2462ZM19.7572 10.2848C18.887 10.2848 18.0523 10.6306 17.437 11.2463L17.6492 11.4584C18.2083 10.899 18.9666 10.5848 19.7572 10.5848V10.2848ZM22.0776 11.2464C21.4622 10.6306 20.6276 10.2848 19.7572 10.2848V10.5848C20.5479 10.5848 21.3062 10.899 21.8655 11.4585L22.0776 11.2464ZM23.039 13.5665C23.039 12.6962 22.6931 11.8616 22.0776 11.2463L21.8655 11.4585C22.4248 12.0175 22.739 12.7758 22.739 13.5665H23.039ZM22.0776 15.8867C22.6931 15.2714 23.039 14.4368 23.039 13.5665H22.739C22.739 14.3572 22.4248 15.1155 21.8655 15.6745L22.0776 15.8867ZM21.3401 16.6241L22.0776 15.8866L21.8655 15.6745L21.128 16.412L21.3401 16.6241Z" fill="white"/>
</mask>
<g mask="url(#mask0_152_7248)">
</g>
<path d="M16.2115 10.3251C17.0595 9.47669 18.21 9 19.4096 9C20.6092 9 21.7596 9.47669 22.6077 10.3251C23.4559 11.173 23.9326 12.3234 23.9326 13.523C23.9326 14.7226 23.4559 15.8731 22.6076 16.721L16.458 22.8706C16.1863 23.1422 15.7459 23.1422 15.4742 22.8706L9.32465 16.721C7.55845 14.9548 7.55845 12.0912 9.32465 10.325C11.0908 8.55882 13.9544 8.55882 15.7206 10.325L15.9661 10.5705L16.2115 10.3251Z" fill="#FF0000"/>
</svg>
