<svg width="31" height="32" viewBox="0 0 31 32" fill="none" xmlns="http://www.w3.org/2000/svg">
<rect opacity="0.01" x="-1" width="32" height="32" fill="#D8D8D8"/>
<path fill-rule="evenodd" clip-rule="evenodd" d="M21.9267 15.9999C21.9267 12.1747 18.8257 9.07379 15.0004 9.07379C11.1752 9.07379 8.07422 12.1747 8.07422 15.9999C8.07422 18.5853 9.51406 20.9555 11.8085 22.1469L12.0561 22.2693C14.2168 23.2844 16.7503 23.1144 18.756 21.8197L18.7766 21.8051L21.2003 22.0287C21.5902 22.0647 21.9267 21.7578 21.9267 21.3662V15.9999ZM9.40493 15.9999C9.40493 12.9096 11.9101 10.4045 15.0004 10.4045L15.2202 10.4087C18.2086 10.5241 20.596 12.9832 20.596 15.9999L20.5956 20.6361L18.6633 20.4586C18.506 20.4441 18.3487 20.486 18.2195 20.5769C16.511 21.7785 14.2755 21.9285 12.4218 20.9659C10.5681 20.0034 9.40493 18.0886 9.40493 15.9999Z" fill="black"/>
<path d="M11.8085 22.1469L11.7394 22.2801L11.7421 22.2814L11.8085 22.1469ZM12.0561 22.2693L11.9897 22.4038L11.9924 22.4051L12.0561 22.2693ZM18.756 21.8197L18.8374 21.9459L18.8426 21.9422L18.756 21.8197ZM18.7766 21.8051L18.7904 21.6558L18.7352 21.6507L18.6899 21.6827L18.7766 21.8051ZM21.2003 22.0287L21.1865 22.1781L21.1865 22.1781L21.2003 22.0287ZM15.0004 10.4045L15.0033 10.2545H15.0004V10.4045ZM15.2202 10.4087L15.2259 10.2588L15.2231 10.2588L15.2202 10.4087ZM20.596 15.9999L20.746 15.9999V15.9999H20.596ZM20.5956 20.6361L20.5818 20.7855L20.7456 20.8006L20.7456 20.6362L20.5956 20.6361ZM18.6633 20.4586L18.6495 20.6079L18.6496 20.6079L18.6633 20.4586ZM18.2195 20.5769L18.1332 20.4542L18.2195 20.5769ZM12.4218 20.9659L12.4909 20.8328V20.8328L12.4218 20.9659ZM15.0004 9.22379C18.7429 9.22379 21.7767 12.2575 21.7767 15.9999H22.0767C22.0767 12.0918 18.9085 8.92379 15.0004 8.92379V9.22379ZM8.22422 15.9999C8.22422 12.2575 11.258 9.22379 15.0004 9.22379V8.92379C11.0924 8.92379 7.92422 12.0918 7.92422 15.9999H8.22422ZM11.8777 22.0138C9.63288 20.8482 8.22422 18.5293 8.22422 15.9999H7.92422C7.92422 18.6413 9.39524 21.0628 11.7394 22.28L11.8777 22.0138ZM12.1226 22.1348L11.875 22.0124L11.7421 22.2814L11.9897 22.4038L12.1226 22.1348ZM18.6746 21.6937C16.7124 22.9603 14.2338 23.1266 12.1199 22.1335L11.9924 22.4051C14.1998 23.4422 16.7882 23.2685 18.8373 21.9458L18.6746 21.6937ZM18.6899 21.6827L18.6693 21.6973L18.8426 21.9422L18.8632 21.9276L18.6899 21.6827ZM21.214 21.8794L18.7904 21.6558L18.7628 21.9545L21.1865 22.1781L21.214 21.8794ZM21.7767 21.3662C21.7767 21.6695 21.516 21.9072 21.214 21.8794L21.1865 22.1781C21.6643 22.2221 22.0767 21.846 22.0767 21.3662H21.7767ZM21.7767 15.9999V21.3662H22.0767V15.9999H21.7767ZM15.0004 10.2545C11.8273 10.2545 9.25493 12.8268 9.25493 15.9999H9.55493C9.55493 12.9925 11.993 10.5545 15.0004 10.5545V10.2545ZM15.2231 10.2588L15.0033 10.2545L14.9976 10.5545L15.2173 10.5587L15.2231 10.2588ZM20.746 15.9999C20.746 12.9023 18.2946 10.3773 15.2259 10.2589L15.2144 10.5586C18.1226 10.6709 20.446 13.0641 20.446 15.9999H20.746ZM20.7456 20.6362L20.746 15.9999L20.446 15.9998L20.4456 20.6361L20.7456 20.6362ZM18.6496 20.6079L20.5818 20.7855L20.6093 20.4868L18.677 20.3092L18.6496 20.6079ZM18.3058 20.6996C18.4058 20.6292 18.5277 20.5967 18.6495 20.6079L18.6771 20.3092C18.4843 20.2914 18.2915 20.3428 18.1332 20.4542L18.3058 20.6996ZM12.3527 21.099C14.2561 22.0874 16.5515 21.9334 18.3058 20.6996L18.1332 20.4542C16.4705 21.6236 14.2949 21.7696 12.4909 20.8328L12.3527 21.099ZM9.25493 15.9999C9.25493 18.1446 10.4493 20.1107 12.3527 21.0991L12.4909 20.8328C10.687 19.8961 9.55493 18.0326 9.55493 15.9999H9.25493Z" fill="black"/>
</svg>
