<svg width="27" height="24" viewBox="0 0 27 24" fill="black" xmlns="http://www.w3.org/2000/svg">
<path d="M17.2559 23.9952C17.0104 23.9952 16.7648 23.9599 16.5193 23.901C15.7944 23.7008 15.1864 23.2416 14.8006 22.594L14.6602 22.3585C13.9704 21.1574 13.0233 21.1574 12.3335 22.3585L12.2049 22.5822C11.819 23.2416 11.211 23.7126 10.4861 23.901C9.74952 24.1012 8.98953 23.9952 8.34646 23.6066L6.33539 22.4409C5.62217 22.0287 5.10771 21.3576 4.88556 20.5451C4.6751 19.7326 4.78033 18.8965 5.18956 18.1783C5.52863 17.5777 5.62217 17.0361 5.4234 16.6946C5.22464 16.3531 4.72187 16.1529 4.03203 16.1529C2.32497 16.1529 0.933594 14.7517 0.933594 13.0325V10.9601C0.933594 9.2409 2.32497 7.83966 4.03203 7.83966C4.72187 7.83966 5.22464 7.63948 5.4234 7.298C5.62217 6.95652 5.54032 6.41486 5.18956 5.81433C4.78033 5.09604 4.6751 4.24823 4.88556 3.44752C5.09602 2.63503 5.61048 1.96385 6.33539 1.55172L8.35815 0.385974C9.67937 -0.402962 11.4215 0.0562693 12.2166 1.41041L12.3569 1.64592C13.0467 2.84699 13.9938 2.84699 14.6836 1.64592L14.8122 1.42219C15.6073 0.0562693 17.3495 -0.402962 18.6824 0.397749L20.6934 1.56349C21.4067 1.97562 21.9211 2.64681 22.1433 3.45929C22.3537 4.27178 22.2485 5.10782 21.8393 5.8261C21.5002 6.42664 21.4067 6.9683 21.6054 7.30978C21.8042 7.65126 22.307 7.85143 22.9968 7.85143C24.7039 7.85143 26.0952 9.25268 26.0952 10.9719V13.0443C26.0952 14.7635 24.7039 16.1647 22.9968 16.1647C22.307 16.1647 21.8042 16.3649 21.6054 16.7064C21.4067 17.0478 21.4885 17.5895 21.8393 18.19C22.2485 18.9083 22.3654 19.7561 22.1433 20.5568C21.9328 21.3693 21.4183 22.0405 20.6934 22.4527L18.6707 23.6184C18.2264 23.8657 17.747 23.9952 17.2559 23.9952ZM13.5027 19.6384C14.5433 19.6384 15.5138 20.2978 16.1802 21.4635L16.3089 21.6873C16.4492 21.9345 16.683 22.1112 16.9636 22.1818C17.2442 22.2525 17.5248 22.2171 17.7587 22.0758L19.7814 20.8983C20.0854 20.7217 20.3193 20.4273 20.4128 20.0741C20.5064 19.7208 20.4596 19.3558 20.2842 19.0496C19.6177 17.8957 19.5359 16.7064 20.0504 15.7997C20.5648 14.893 21.6288 14.3749 22.9617 14.3749C23.71 14.3749 24.3063 13.7743 24.3063 13.0207V10.9483C24.3063 10.2065 23.71 9.59416 22.9617 9.59416C21.6288 9.59416 20.5648 9.07605 20.0504 8.16936C19.5359 7.26268 19.6177 6.07338 20.2842 4.91942C20.4596 4.61326 20.5064 4.24823 20.4128 3.89498C20.3193 3.54172 20.0971 3.25912 19.7931 3.07071L17.7704 1.90497C17.2676 1.59882 16.6012 1.77544 16.2972 2.29355L16.1685 2.51728C15.5021 3.68302 14.5316 4.34243 13.491 4.34243C12.4504 4.34243 11.48 3.68302 10.8135 2.51728L10.6849 2.28178C10.3926 1.78722 9.73783 1.61059 9.23506 1.90497L7.21231 3.08249C6.90831 3.25912 6.67447 3.5535 6.58093 3.90675C6.48739 4.26001 6.53416 4.62504 6.70955 4.93119C7.376 6.08516 7.45785 7.27445 6.94339 8.18114C6.42893 9.08783 5.36494 9.60594 4.03203 9.60594C3.28373 9.60594 2.68743 10.2065 2.68743 10.9601V13.0325C2.68743 13.7743 3.28373 14.3867 4.03203 14.3867C5.36494 14.3867 6.42893 14.9048 6.94339 15.8115C7.45785 16.7181 7.376 17.9074 6.70955 19.0614C6.53416 19.3676 6.48739 19.7326 6.58093 20.0858C6.67447 20.4391 6.89662 20.7217 7.20062 20.9101L9.22337 22.0758C9.46891 22.2289 9.76121 22.2642 10.0301 22.1936C10.3107 22.1229 10.5446 21.9345 10.6966 21.6873L10.8252 21.4635C11.4917 20.3096 12.4621 19.6384 13.5027 19.6384Z" fill="black"/>
<path d="M13.4783 16.3089C11.058 16.3089 9.09375 14.3307 9.09375 11.8932C9.09375 9.45577 11.058 7.47754 13.4783 7.47754C15.8986 7.47754 17.8629 9.45577 17.8629 11.8932C17.8629 14.3307 15.8986 16.3089 13.4783 16.3089ZM13.4783 9.24382C12.0285 9.24382 10.8476 10.4331 10.8476 11.8932C10.8476 13.3534 12.0285 14.5426 13.4783 14.5426C14.9282 14.5426 16.1091 13.3534 16.1091 11.8932C16.1091 10.4331 14.9282 9.24382 13.4783 9.24382Z" fill="black"/>
</svg>
